<svg xmlns="http://www.w3.org/2000/svg" width="70" height="100" viewBox="0 3 70 105"><g fill="none" stroke="#1e1e1e" stroke-linecap="round" stroke-width="2"><path d="M57.945 10.544c-5.9 1.89-27.68-6.24-35.6 9.55-7.93 15.78-10.02 71.2-11.93 85.14m49.57-95.23c-5.95 2.17-29.94-3.95-38.27 11.63-8.33 15.58-9.43 68.03-11.71 81.87"/><path d="M3.685 79.314c3.06 7.26 3.1 13.62 6.32 24.19m-6.32-24.19c3.29 9.67 4.37 19.65 6.32 24.19m10.71-22.59c-1.32 6.81-5.67 12.75-10.71 22.59m10.71-22.59c-3.47 8.99-9.13 18.33-10.71 22.59"/></g></svg>